<svg width="219" height="219" viewBox="0 0 219 219" fill="none" xmlns="http://www.w3.org/2000/svg">
<rect width="219" height="219" rx="12" fill="#302D29"/>
<path d="M213 100.081C210.077 101.252 207.156 102.428 204.231 103.591C202.068 104.451 199.909 105.322 197.725 106.129C197.157 106.339 196.868 106.579 196.903 107.213C196.955 108.138 196.92 109.066 196.955 109.99C197.021 111.67 196.51 113.15 195.208 114.208C192.709 116.241 189.963 117.804 186.583 117.367C184.539 117.104 182.714 116.182 181.214 114.737C180.559 114.105 179.982 114.132 179.204 114.516C177.304 115.455 175.356 116.295 173.429 117.182C170.813 118.388 168.22 119.642 165.585 120.803C159.372 123.54 153.126 126.208 146.917 128.958C142.527 130.901 138.191 132.968 133.797 134.905C131.508 135.913 129.166 136.813 126.808 137.644C125.979 137.937 125.866 138.344 125.823 139.126C125.658 142.127 125.382 145.122 125.141 148.218C123.161 148.218 121.349 148.214 119.538 148.218C118.306 148.222 117.991 148.471 118.256 149.68C118.59 151.207 118.903 152.823 119.651 154.163C122.127 158.59 121.726 162.942 119.585 167.26C117.257 171.959 114.787 176.589 112.381 181.251C112.258 181.492 112.163 181.749 112.056 182H111.644C110.031 179.419 108.41 176.842 106.809 174.254C104.52 170.558 102.582 166.706 101.912 162.349C101.451 159.356 101.799 156.53 103.888 154.13C104.203 153.77 104.465 153.362 104.755 152.979C106.014 151.32 106.057 151.162 105.804 148.858C104.817 148.811 103.806 148.778 102.796 148.71C101.051 148.593 99.3086 148.44 97.5638 148.327C96.9581 148.288 96.7707 148.008 96.746 147.417C96.643 144.984 96.472 142.556 96.3731 140.125C96.3484 139.515 96.1135 139.235 95.5697 138.995C84.594 134.133 73.7378 128.983 62.6159 124.483C56.8376 122.147 51.4713 118.845 45.386 117.227C43.9646 116.849 42.6895 115.906 41.3526 115.214C40.0321 114.531 39.7519 114.523 38.7528 115.585C37.4839 116.935 35.8627 117.373 34.1199 117.524C31.4955 117.752 28.9802 117.301 26.638 116.093C23.8261 114.644 22.4912 112.036 23.0247 108.922C23.1957 107.919 22.9135 107.421 22.0277 107.022C17.5575 105.007 13.1038 102.957 8.64594 100.911C8.08974 100.66 7.55002 100.361 7 100.081C7 99.8753 7 99.6695 7 99.4637C7.13802 99.0499 7.31106 98.6465 7.40994 98.2225C8.29986 94.4186 9.2042 90.6147 10.0406 86.7985C10.2177 85.9896 10.6194 85.7097 11.3651 85.7199C12.7371 85.7385 14.1091 85.7652 15.481 85.7673C19.1128 85.7714 22.7466 85.8023 26.3764 85.7323C27.2745 85.7138 27.8843 85.9443 28.1521 86.7553C28.5146 87.8565 28.7783 88.9928 29.0708 90.1166C29.2006 90.6127 29.2933 91.119 29.4025 91.6192C29.5611 90.7568 29.5529 89.9396 29.5632 89.1245C29.5714 88.3382 29.5261 87.5416 29.627 86.7656C29.8186 85.3103 29.9257 85.2651 31.4089 85.4112C31.7839 85.4482 32.1629 85.4791 32.5399 85.4832C37.1028 85.5347 41.6677 85.5635 46.2286 85.6376C48.1773 85.6705 48.303 85.7632 48.8633 87.6507C49.23 88.8837 49.4463 90.1598 49.7306 91.4175C50.0602 90.6127 50.1632 89.7893 50.2415 88.9619C50.3321 88.0068 50.3403 87.0394 50.5175 86.1028C50.5752 85.8043 51.0634 85.3618 51.3518 85.3639C55.3956 85.3947 59.4414 85.4791 63.4831 85.5759C64.853 85.6088 66.2229 85.7735 67.5928 85.7714C68.8597 85.7714 69.3109 86.3786 69.4036 87.5642C69.486 88.6181 69.7558 89.6576 69.9433 90.7012C70.0504 90.6971 70.1575 90.693 70.2647 90.6888C70.4727 90.0446 70.7096 89.4085 70.8847 88.756C71.6861 85.7755 71.6778 85.6973 74.807 85.6314C78.9579 85.545 83.1108 85.5697 87.2638 85.6109C87.7458 85.615 88.2979 85.9464 88.6872 86.2778C89.6637 87.1093 89.6575 88.3423 89.8079 89.4929C89.9047 90.2381 90.0036 90.9832 90.1025 91.7283C90.6669 90.3924 90.9512 89.0586 91.3137 87.7454C91.8555 85.7961 92.0553 85.5573 94.0638 85.5079C98.8636 85.3886 103.665 85.3824 108.465 85.3C109.085 85.2898 109.295 85.5512 109.429 86.0946C109.677 87.1011 109.99 88.0932 110.276 89.0916L110.536 89.073C110.665 88.1097 110.83 87.1485 110.915 86.181C110.979 85.4585 111.337 85.1436 112.027 85.1251C117.517 84.9645 123.005 84.7957 128.458 85.7405C129.428 85.9093 129.764 86.286 129.772 87.2575C129.784 88.5646 129.974 89.8717 130.089 91.1787C130.246 91.1787 130.402 91.1767 130.557 91.1746C130.643 90.2216 130.783 89.2686 130.804 88.3135C130.847 86.2963 131.871 85.2836 133.84 85.2548C136.619 85.2157 139.4 84.9645 142.173 85.0695C144.344 85.1498 146.509 85.5779 148.652 85.9834C149.076 86.0637 149.542 86.6833 149.719 87.1546C150.116 88.2188 150.347 89.3468 150.646 90.4501C150.736 90.4418 150.825 90.4357 150.916 90.4274C151.056 89.3982 151.252 88.3711 151.319 87.3358C151.377 86.4692 151.789 86.0122 152.599 85.8517C153.641 85.6438 154.681 85.2918 155.728 85.2712C159.465 85.1971 163.202 85.2301 166.938 85.2404C168.86 85.2465 169.291 85.5903 169.851 87.4881C169.987 87.9471 170.078 88.4205 170.166 88.8919C170.337 89.8037 170.492 90.7197 170.655 91.6336C170.916 91.3537 170.982 91.0696 171.034 90.7835C171.252 89.5691 171.421 88.3423 171.691 87.1402C171.971 85.8826 172.692 85.2712 173.78 85.2692C178.895 85.2548 184.01 85.2589 189.125 85.2259C189.835 85.2218 190.186 85.4606 190.328 86.1646C190.554 87.2843 190.857 88.3876 191.129 89.4991L191.395 89.4909C191.735 88.3505 192.112 87.2184 192.4 86.0637C192.561 85.4174 192.872 85.1848 193.535 85.1848C198.545 85.1745 203.555 85.1354 208.565 85.0963C209.389 85.0901 209.912 85.3865 210.106 86.2531C210.559 88.2579 211.078 90.2463 211.539 92.2491C212.044 94.4433 212.516 96.6478 213 98.8461V100.081ZM151.375 100.744C151.015 100.701 150.848 100.662 150.679 100.662C144.779 100.662 138.879 100.684 132.981 100.645C131.98 100.639 131.482 101.012 131.026 101.882C125.407 112.625 120.72 123.785 116.151 134.997C116.079 135.176 116.061 135.376 116.015 135.572C118.425 135.969 119.017 135.806 120.753 134.32C121.404 133.762 122.047 133.192 122.731 132.673C130.855 126.523 138.98 120.373 147.132 114.257C147.906 113.677 148.104 113.154 147.873 112.201C147.022 108.681 147.581 105.388 149.803 102.461C150.232 101.897 150.761 101.409 151.375 100.744ZM71.7911 113.002C72.4503 113.524 72.9488 113.94 73.468 114.327C76.1336 116.318 78.8116 118.292 81.469 120.292C83.2488 121.632 84.9978 123.011 86.7653 124.368C88.8809 125.99 90.9265 127.717 93.141 129.193C95.6088 130.839 98.3878 131.998 100.553 134.137C101.457 135.032 102.621 135.67 104.088 135.779C103.977 135.427 103.921 135.166 103.816 134.927C98.8904 123.767 93.9588 112.608 89.0436 101.442C88.7779 100.841 88.4153 100.676 87.787 100.678C81.6462 100.699 75.5053 100.69 69.3644 100.695C69.1069 100.695 68.8474 100.734 68.5899 100.754C68.5137 100.855 68.4354 100.958 68.3592 101.059C68.7794 101.388 69.2326 101.681 69.6116 102.051C71.3771 103.766 72.6007 105.779 73.0333 108.243C73.3402 109.986 73.1033 111.579 71.7932 113.006L71.7911 113.002ZM93.0174 100.81C93.2069 101.347 93.3161 101.668 93.4355 101.987C97.4773 112.715 102.219 123.133 107.254 133.427C108.204 135.368 109.184 136.302 111.388 135.837C112.169 135.672 112.546 135.446 112.837 134.721C114.283 131.127 115.756 127.546 117.276 123.983C120.409 116.639 123.582 109.309 126.729 101.971C126.871 101.639 126.95 101.279 127.1 100.8C123.371 100.485 119.787 100.254 116.023 100.732C116.258 101.051 116.351 101.228 116.487 101.359C118.782 103.535 119.455 106.275 119.002 109.268C118.421 113.117 116.394 115.99 112.585 117.223C108.863 118.429 105.396 117.789 102.631 114.912C100.102 112.277 99.4343 109.14 100.576 105.593C101.212 103.615 102.197 102.059 104.205 101.294C104.405 101.217 104.578 101.071 105.009 100.808H93.0132L93.0174 100.81ZM37.385 100.717C37.3644 100.816 37.3438 100.913 37.3232 101.012C37.4777 101.139 37.6301 101.265 37.7846 101.392C37.97 101.545 38.1596 101.693 38.3408 101.849C41.06 104.161 42.1003 107.106 41.5194 110.593C41.3855 111.392 41.5483 111.736 42.2857 112.055C60.1295 119.809 77.9629 127.585 95.7984 135.353C96.0147 135.448 96.2536 135.491 96.4823 135.559C96.0682 135.024 95.5862 134.647 95.0609 134.349C94.1668 133.842 93.1801 133.476 92.3437 132.892C89.7873 131.107 87.2535 129.287 84.765 127.41C80.7995 124.419 76.5662 121.762 73.1281 118.104C72.5945 117.536 71.8962 117.122 71.2741 116.639C70.2708 115.861 69.2305 115.682 68.1635 116.499C66.1632 118.036 63.9569 118.063 61.6065 117.546C57.7955 116.709 55.0886 114.13 54.5221 110.317C54.2955 108.79 54.4706 107.176 54.6705 105.626C54.7735 104.82 54.6787 104.268 54.0071 103.889C52.7876 103.204 51.6072 102.277 50.2888 101.973C47.6644 101.368 44.9658 101.03 42.2816 100.746C40.6666 100.575 39.0186 100.715 37.3871 100.715L37.385 100.717ZM182.469 100.686C182.413 100.59 182.355 100.495 182.3 100.398C178.26 100.328 174.223 100.303 170.304 101.553C168.669 102.074 167.252 102.979 166.147 104.291C165.83 104.667 165.628 105.235 165.593 105.731C165.519 106.787 165.655 107.858 165.587 108.914C165.26 113.94 160.798 117.935 155.8 117.53C154.482 117.423 153.221 116.702 151.915 116.338C151.511 116.225 150.916 116.186 150.613 116.402C142.696 122.069 134.807 127.774 126.917 133.48C126.676 133.655 126.492 133.91 126.284 134.127C128.074 133.622 129.698 132.906 131.337 132.231C136.189 130.238 141.087 128.357 145.891 126.255C152.047 123.561 158.148 120.743 164.232 117.888C168.98 115.661 173.66 113.292 178.378 110.999C179.012 110.69 179.241 110.357 179.084 109.574C178.439 106.374 179.362 103.615 181.678 101.322C181.917 101.086 182.205 100.896 182.471 100.684L182.469 100.686ZM209.23 97.0821C209.142 96.4132 209.096 95.8697 208.993 95.3387C208.579 93.2186 208.114 91.1088 207.743 88.9804C207.623 88.2929 207.364 88.0932 206.682 88.0994C203.112 88.1303 199.54 88.1118 195.97 88.1138C194.647 88.1138 194.392 88.3258 194.186 89.6885C193.873 91.7571 193.595 93.8299 193.292 95.8986C193.125 97.0348 193.199 97.1356 194.365 97.1356C198.965 97.1377 203.567 97.1377 208.167 97.1356C208.47 97.1356 208.771 97.1068 209.23 97.0821ZM148.808 97.2036C148.808 96.8063 148.85 96.5634 148.802 96.3391C148.293 93.9308 147.791 91.5184 147.214 89.1265C147.158 88.8939 146.614 88.6346 146.293 88.6325C142.591 88.5975 138.889 88.6325 135.188 88.5934C134.45 88.5852 134.104 88.8384 134.02 89.5362C133.737 91.9115 133.455 94.2848 133.169 96.6581C133.088 97.3168 133.517 97.3806 134.001 97.3847C135.919 97.4012 137.839 97.4506 139.757 97.4238C142.731 97.3806 145.706 97.2838 148.808 97.2056V97.2036ZM31.7509 97.2653C37.3088 97.7593 42.6401 97.7017 48.097 97.253C47.6356 94.6594 47.1638 92.2635 46.1606 89.9828C45.7692 89.0895 45.2254 88.7334 44.2922 88.7375C40.7984 88.7519 37.3026 88.7375 33.8088 88.7396C33.6111 88.7396 33.4154 88.8096 33.1496 88.859C32.6882 91.6275 32.2288 94.3816 31.7488 97.2653H31.7509ZM180.87 97.2797V97.1706C183.132 97.1706 185.392 97.1727 187.654 97.1706C188.824 97.1706 188.956 97.0471 188.774 95.8512C188.453 93.7208 188.053 91.6007 187.755 89.4662C187.652 88.7375 187.365 88.4802 186.644 88.4905C182.778 88.5502 178.909 88.5646 175.042 88.6408C174.793 88.6449 174.385 89.0113 174.332 89.2686C173.856 91.5801 173.444 93.9061 173.007 96.2258C172.857 97.0307 173.147 97.3168 173.988 97.2983C176.28 97.2489 178.575 97.2818 180.87 97.2818V97.2797ZM128.458 97.4135C127.873 94.4886 127.386 91.9074 126.803 89.3468C126.738 89.0607 126.117 88.719 125.749 88.7128C122.012 88.6428 118.273 88.6449 114.534 88.6037C113.935 88.5975 113.687 88.8178 113.611 89.4168C113.319 91.7633 112.999 94.1057 112.655 96.444C112.548 97.1748 112.781 97.4197 113.516 97.4156C116.876 97.3929 120.238 97.4115 123.6 97.4156C125.102 97.4156 126.602 97.4156 128.458 97.4156V97.4135ZM52.1531 97.4485C52.4498 97.4979 52.5816 97.5391 52.7114 97.537C57.1301 97.4856 61.5488 97.4218 65.9675 97.3785C68.4457 97.3559 68.4725 97.325 67.8565 94.8879C67.4301 93.2001 66.9728 91.5142 66.6638 89.8017C66.5381 89.1121 66.293 88.8528 65.6482 88.8404C62.6344 88.7766 59.6227 88.6675 56.6089 88.6593C55.8035 88.6572 54.9712 88.8754 54.2028 89.1389C53.8114 89.2727 53.3026 89.6926 53.2408 90.0508C52.8247 92.4734 52.5116 94.9147 52.1531 97.4465V97.4485ZM168.731 97.0718C168.397 95.0361 168.187 93.0683 167.734 91.1561C167.192 88.8631 167.103 88.8837 164.78 88.7046C164.609 88.6922 164.438 88.6614 164.267 88.6614C161.117 88.6696 157.967 88.6675 154.819 88.7149C154.55 88.719 154.1 89.0175 154.045 89.2521C153.575 91.2796 153.161 93.3194 152.77 95.3613C152.665 95.9047 152.691 96.4729 152.656 97.0677H168.729L168.731 97.0718ZM100.157 97.3765C100.157 97.3641 100.157 97.3518 100.157 97.3394C102.419 97.3394 104.679 97.3147 106.941 97.3518C107.792 97.3662 108.16 97.1007 107.965 96.2238C107.476 94.0213 106.986 91.8189 106.529 89.6103C106.364 88.8137 105.896 88.5934 105.143 88.6017C101.923 88.6408 98.703 88.6284 95.4832 88.6737C93.8352 88.6963 93.8475 88.7375 93.5633 90.343C93.211 92.3294 92.8258 94.3116 92.4673 96.2979C92.3252 97.0821 92.661 97.4012 93.4747 97.3888C95.7015 97.3538 97.9284 97.3765 100.155 97.3765H100.157ZM88.1187 97.4279C87.5954 94.7006 87.1834 92.352 86.6787 90.0219C86.4851 89.1286 85.8424 88.7128 84.8556 88.719C81.5658 88.7355 78.276 88.6655 74.9862 88.6963C74.6319 88.7005 74.0551 89.0792 73.9685 89.3921C73.3361 91.6625 72.7943 93.9575 72.2443 96.2505C72.0589 97.0224 72.3432 97.3621 73.2002 97.36C76.284 97.3497 79.3678 97.4073 82.4537 97.43C84.2253 97.4423 85.9969 97.432 88.1207 97.432L88.1187 97.4279ZM27.8822 97.4094C26.8996 94.4536 26.0344 91.8004 25.1136 89.1657C25.0394 88.9516 24.578 88.7519 24.2958 88.7499C21.5889 88.7272 18.8821 88.721 16.1752 88.7643C12.7845 88.8178 12.7598 88.8384 12.4116 92.2079C12.2303 93.9637 12.1582 95.7298 12.0408 97.4073H27.8822V97.4094ZM193.558 107.994C193.624 106.127 193.074 104.519 191.7 103.249C190.371 102.02 188.865 101.409 187.005 101.872C184.91 102.393 183.058 103.156 182.277 105.425C181.762 106.923 181.653 108.426 181.933 109.978C182.724 114.387 187.934 115.735 190.649 113.775C192.715 112.283 193.341 110.289 193.56 107.994H193.558ZM69.6116 109.22C69.245 107.841 68.9174 106.448 68.4828 105.089C68.3633 104.717 67.9739 104.348 67.6134 104.151C66.5031 103.539 65.366 102.973 64.2062 102.461C62.8857 101.876 61.4726 102.098 60.5662 103.051C59.3817 104.295 58.3167 105.762 57.608 107.32C56.4482 109.865 57.608 112.452 60.1459 113.648C61.7775 114.418 63.4564 114.603 65.2506 114.23C68.0605 113.646 69.3995 112.123 69.6137 109.222L69.6116 109.22ZM32.3092 102.337C29.316 102.347 27.3961 103.809 26.6297 106.689C26.4814 107.248 26.4196 107.831 26.296 108.399C25.6348 111.476 28.3169 113.901 30.5396 114.595C30.76 114.663 31.0196 114.675 31.2483 114.636C33.5225 114.234 35.6031 113.38 37.2635 111.746C37.6816 111.334 37.8403 110.645 38.073 110.066C38.5942 108.767 37.9721 107.588 37.6384 106.384C36.8288 103.465 35.3229 102.329 32.3071 102.339L32.3092 102.337ZM103.756 108.255C103.801 108.636 103.832 109.288 103.966 109.918C104.57 112.757 106.764 114.457 109.662 114.364C112.478 114.274 115.364 111.919 115.735 109.406C116.085 107.047 114.8 104.546 112.686 103.216C110.649 101.936 108.748 102.426 106.624 103.113C104.749 103.718 104.051 104.815 103.874 106.549C103.826 107.024 103.806 107.504 103.756 108.255ZM162.367 109.035C162.353 106.466 161.14 104.2 159.016 102.778C156.809 101.3 153.676 101.79 152.078 103.864C149.801 106.82 150.631 111.746 153.736 113.815C154.556 114.36 155.359 114.595 156.34 114.251C157.176 113.957 158.068 113.829 158.927 113.592C161.319 112.934 162.38 111.517 162.365 109.033L162.367 109.035ZM121.969 144.427C121.969 142.803 121.942 141.37 121.979 139.937C122 139.198 121.676 138.98 120.994 139.011C118.598 139.118 116.203 139.207 113.805 139.287C109.907 139.414 106.01 139.507 102.114 139.682C101.729 139.699 101.198 140.123 101.029 140.491C100.736 141.131 100.662 141.874 100.522 142.578C100.122 144.577 100.126 144.692 102.199 144.713C106.547 144.754 110.896 144.678 115.245 144.62C117.393 144.591 119.542 144.499 121.964 144.427H121.969ZM111.778 162.207C113.716 162.063 115.527 161.923 117.336 161.795C118.059 161.744 118.413 161.396 118.53 160.653C118.743 159.292 118.512 158.067 117.719 156.941C115.984 154.48 111.409 152.856 108.492 153.751C107.944 153.918 107.396 154.34 107.034 154.793C106.459 155.509 105.925 156.303 105.583 157.149C105.178 158.15 104.947 159.228 104.731 160.292C104.578 161.04 104.908 161.507 105.75 161.583C107.796 161.77 109.837 162.005 111.778 162.209V162.207ZM106.683 164.627C107.95 168.985 109.411 173.028 111.737 176.93C113.422 172.706 115.014 168.713 116.646 164.627H106.683ZM17.8191 101.182C17.815 101.296 17.8109 101.411 17.8088 101.524C19.5825 102.325 21.35 103.134 23.1339 103.912C23.3173 103.992 23.6613 103.98 23.7911 103.86C24.8499 102.874 25.8758 101.853 27.1056 100.653C23.9064 100.835 20.8638 101.007 17.8212 101.18L17.8191 101.182ZM193.15 100.588C193.471 100.974 193.65 101.209 193.848 101.427C195.114 102.816 196.613 103.168 198.345 102.483C199.633 101.973 200.918 101.456 202.204 100.942C202.181 100.824 202.16 100.705 202.138 100.588H193.15ZM115.78 149.813H109.815C109.81 149.918 109.806 150.023 109.8 150.126C111.778 150.349 113.755 150.571 115.78 150.797V149.813ZM55.1937 100.804C56.7758 102.43 57.4638 102.38 58.3228 100.804H55.1937ZM161.953 100.338C163.651 101.956 164.462 101.989 165.669 100.596C164.466 100.511 163.352 100.435 161.953 100.338Z" fill="#F6F5F5"/>
</svg>
