<svg width="2366" height="1538" viewBox="0 0 2366 1538" fill="none" xmlns="http://www.w3.org/2000/svg">
<g opacity="0.3">
<g filter="url(#filter0_f_108_1555)">
<path d="M1420.35 793.227C1420.35 931.342 640.811 1334 540.546 1334C440.28 1334 483.688 1022.19 483.688 884.074C483.688 745.959 564.969 793.227 665.235 793.227C765.5 793.227 1420.35 655.112 1420.35 793.227Z" fill="#3D36F5"/>
<path d="M540.546 454.079C625.47 314.324 736.62 210.065 919.589 321.429C1102.56 432.794 1288.06 717.61 1203.13 857.365C1118.21 997.12 335.839 718.273 152.87 606.909C-30.0986 495.544 455.621 593.834 540.546 454.079Z" fill="#FF9900"/>
<path d="M2162 658.734C2162 796.849 1877.32 908.813 1670.73 908.813C1464.13 908.813 1296.66 796.849 1296.66 658.734C1296.66 520.619 1395.31 204 1601.9 204C1808.49 204 2162 520.619 2162 658.734Z" fill="#ED3700"/>
</g>
</g>
<defs>
<filter id="filter0_f_108_1555" x="-92" y="0" width="2458" height="1538" filterUnits="userSpaceOnUse" color-interpolation-filters="sRGB">
<feFlood flood-opacity="0" result="BackgroundImageFix"/>
<feBlend mode="normal" in="SourceGraphic" in2="BackgroundImageFix" result="shape"/>
<feGaussianBlur stdDeviation="102" result="effect1_foregroundBlur_108_1555"/>
</filter>
</defs>
</svg>
