<svg width="200" height="164" viewBox="0 0 200 164" fill="none" xmlns="http://www.w3.org/2000/svg">
<path d="M192.848 49.005C192.848 54.7761 193.195 58.855 193.89 61.2418H186.008C186.507 59.5141 186.819 57.4746 186.943 55.1234C187.21 49.4414 187.344 45.0329 187.344 41.898C187.344 38.7631 187.335 36.6613 187.317 35.5925C187.299 34.506 187.282 33.4195 187.264 32.3329C187.157 28.4677 186.97 26.0364 186.703 25.0389C186.453 24.0236 186.213 23.2934 185.981 22.8481C185.768 22.3849 185.518 21.9664 185.233 21.5923L184.352 20.3633H194.104C193.605 22.1623 193.311 23.8901 193.222 25.5466C193.151 27.1853 193.088 28.637 193.035 29.9016C192.999 31.1663 192.964 32.4843 192.928 33.8559C192.892 36.1358 192.875 38.8521 192.875 42.0049L192.848 49.005Z" fill="#F6F5F5"/>
<path d="M178.606 52.1576C179.248 52.5851 179.568 53.3332 179.568 54.4019C179.568 55.4528 179.426 56.379 179.141 57.1806C178.856 57.9821 178.357 58.7302 177.645 59.4249C176.042 60.9923 173.601 61.776 170.324 61.776C166.512 61.776 163.609 60.3689 161.614 57.5546C159.85 55.0431 158.969 51.6499 158.969 47.3751C158.969 43.0646 160.162 39.6803 162.549 37.2222C164.811 34.8889 167.875 33.7222 171.74 33.7222C174.43 33.7222 176.531 34.5059 178.045 36.0734C179.239 37.3202 179.835 38.763 179.835 40.4017C179.835 42.0226 179.515 43.492 178.874 44.8101C178.25 46.1104 177.324 47.2326 176.095 48.1766C173.566 50.1359 170.03 51.169 165.488 51.2759C165.862 54.8561 166.984 57.2518 168.854 58.463C169.531 58.8905 170.431 59.1043 171.553 59.1043C172.675 59.1043 173.868 58.5165 175.133 57.3409C176.398 56.1653 177.556 54.4375 178.606 52.1576ZM165.328 48.7377C170.956 48.3636 173.771 45.6384 173.771 40.562C173.771 38.6561 173.201 37.3736 172.061 36.7146C171.669 36.5008 171.152 36.394 170.511 36.394C169.87 36.394 169.22 36.5899 168.561 36.9818C167.919 37.3736 167.358 38.0149 166.877 38.9055C165.844 40.847 165.328 43.8483 165.328 47.9094V48.7377Z" fill="#F6F5F5"/>
<path d="M152.584 32.6802C153.065 33.7489 153.305 34.8265 153.305 35.9131C153.305 36.9996 153.252 37.8991 153.145 38.6116C153.056 39.3241 152.913 40.0098 152.718 40.6689C152.272 42.1651 151.64 43.3139 150.821 44.1155C150.268 41.3546 149.663 39.5645 149.004 38.7452C148.363 37.9258 147.712 37.3736 147.053 37.0886C146.412 36.8037 145.726 36.6612 144.996 36.6612C144.266 36.6612 143.669 36.7324 143.206 36.8749C142.743 37.0174 142.342 37.2222 142.004 37.4894C141.238 38.0772 140.855 38.7452 140.855 39.4933C140.855 40.2414 141.042 40.8915 141.416 41.4437C141.79 41.978 142.28 42.4857 142.885 42.9666C143.509 43.4297 144.212 43.8839 144.996 44.3292L147.401 45.6918C149.467 46.8496 150.883 47.8115 151.649 48.5774C153.163 50.0914 153.92 51.6856 153.92 53.3599C153.92 55.5508 153.172 57.3943 151.676 58.8905C149.787 60.8142 146.955 61.7761 143.179 61.7761C139.742 61.7761 137.159 60.9745 135.431 59.3715C134.932 58.9083 134.576 58.4452 134.362 57.9821C134.505 56.6462 135.102 55.3905 136.152 54.2149C137.168 53.0749 138.156 52.4159 139.118 52.2378C139.047 52.4693 139.011 52.8166 139.011 53.2798C139.011 53.7429 139.145 54.3218 139.412 55.0164C139.679 55.6933 140.062 56.3256 140.561 56.9134C141.683 58.2671 142.948 58.944 144.355 58.944C145.762 58.944 146.795 58.6234 147.454 57.9821C148.113 57.3409 148.443 56.6106 148.443 55.7913C148.443 54.9719 148.256 54.2861 147.882 53.734C147.508 53.1818 147.009 52.6652 146.385 52.1843C145.78 51.7034 145.085 51.2403 144.301 50.795L141.897 49.4324C139.848 48.2211 138.441 47.1881 137.675 46.3331C136.144 44.6231 135.378 42.7618 135.378 40.749C135.378 38.6294 136.268 36.9105 138.049 35.5924C139.742 34.3456 141.852 33.7222 144.382 33.7222L149.084 34.0428C150.224 34.0428 151.017 33.9092 151.462 33.642C151.907 33.357 152.281 33.0364 152.584 32.6802Z" fill="#F6F5F5"/>
<path d="M127.923 36.7678L127.522 48.7108C127.522 53.5735 127.95 56.9132 128.805 58.73C129.107 59.3891 129.642 60.2262 130.408 61.2415H122.98C122.57 60.0303 122.303 58.4985 122.179 56.646C120.112 60.0659 117.45 61.7759 114.19 61.7759C111.946 61.7759 110.227 60.9387 109.033 59.2644C107.858 57.6435 107.27 55.417 107.27 52.5849V48.978C107.27 48.1764 107.27 47.3571 107.27 46.5199L107.217 44.0886C107.199 42.5389 107.145 41.3366 107.056 40.4816C106.985 39.6088 106.896 38.8875 106.789 38.3175C106.7 37.7297 106.584 37.2131 106.442 36.7678C106.299 36.3047 106.139 35.8772 105.961 35.4854L105.373 34.2563H113.095C113.112 34.5413 113.121 34.8085 113.121 35.0579V35.8327C113.121 35.8327 112.97 40.3035 112.667 49.2451C112.667 51.8635 112.836 53.6447 113.175 54.5887C113.513 55.5328 113.914 56.2096 114.377 56.6193C114.858 57.029 115.49 57.2338 116.274 57.2338C118.394 57.2338 120.112 56.076 121.431 53.7605C121.787 53.1014 122.081 52.4335 122.312 51.7566C122.348 50.7592 122.366 49.6281 122.366 48.3634C122.366 41.8621 121.885 37.5694 120.923 35.4854L120.335 34.2563H127.95C127.932 34.7016 127.923 35.1113 127.923 35.4854V36.7678Z" fill="#F6F5F5"/>
<path d="M84.72 61.2416C85.5393 58.4273 85.949 53.5913 85.949 46.7337C85.949 41.8532 85.5572 38.5224 84.7734 36.7412C84.4528 36.0109 83.8828 35.1826 83.0635 34.2564H92.5484C92.2277 35.3786 91.9695 36.9193 91.7735 38.8786C93.4479 36.7768 95.7812 35.2895 98.7736 34.4167C100.056 34.0427 100.991 33.4549 101.579 32.6533C102.167 34.0605 102.461 35.2717 102.461 36.287C102.461 37.3022 102.407 38.2463 102.3 39.1191C102.194 39.974 102.033 40.8112 101.819 41.6306C101.356 43.3939 100.742 44.7655 99.9759 45.7451C99.3169 42.2718 98.2927 40.2412 96.9034 39.6534C95.3003 38.9588 93.7329 39.9028 92.201 42.4855C91.8804 43.0199 91.6132 43.5899 91.3995 44.1955C91.3817 44.6052 91.3728 45.0237 91.3728 45.4512C91.3728 45.8787 91.3728 46.3062 91.3728 46.7337C91.3728 53.5913 91.7824 58.4273 92.6018 61.2416H84.72Z" fill="#F6F5F5"/>
<path d="M62.7581 61.2416C63.5774 58.4273 63.9871 53.5913 63.9871 46.7337C63.9871 41.8532 63.5952 38.5224 62.8115 36.7412C62.4909 36.0109 61.9209 35.1826 61.1016 34.2564H70.5864C70.2658 35.3786 70.0075 36.9193 69.8116 38.8786C71.4859 36.7768 73.8193 35.2895 76.8117 34.4167C78.0942 34.0427 79.0293 33.4549 79.6171 32.6533C80.2049 34.0605 80.4988 35.2717 80.4988 36.287C80.4988 37.3022 80.4454 38.2463 80.3385 39.1191C80.2316 39.974 80.0713 40.8112 79.8576 41.6306C79.3945 43.3939 78.7799 44.7655 78.014 45.7451C77.355 42.2718 76.3308 40.2412 74.9415 39.6534C73.3384 38.9588 71.7709 39.9028 70.2391 42.4855C69.9185 43.0199 69.6513 43.5899 69.4376 44.1955C69.4198 44.6052 69.4108 45.0237 69.4108 45.4512C69.4108 45.8787 69.4108 46.3062 69.4108 46.7337C69.4108 53.5913 69.8205 58.4273 70.6399 61.2416H62.7581Z" fill="#F6F5F5"/>
<path d="M54.7962 46.9743L54.7161 52.1041C54.7161 55.2925 55.01 57.4656 55.5978 58.6233C55.954 59.318 56.3726 59.8524 56.8535 60.2264L58.1093 61.2417H50.3611L49.5328 58.1424C47.5201 60.5648 44.6523 61.776 40.9296 61.776C38.81 61.776 37.1001 61.0636 35.7998 59.6386C34.6598 58.3562 34.0898 56.8421 34.0898 55.0966C34.0898 53.351 34.4995 51.8281 35.3189 50.5278C36.156 49.2275 37.2515 48.1499 38.6052 47.2949C41.277 45.6384 44.6345 44.7745 48.6778 44.7033V44.4094C48.6778 40.081 48.0099 37.5428 46.674 36.7947C46.1931 36.5276 45.5697 36.394 44.8037 36.394C44.0556 36.394 43.3075 36.6433 42.5594 37.1421C41.8113 37.6408 41.1345 38.282 40.5289 39.0658C39.3177 40.651 38.4538 42.5213 37.9372 44.6765C36.352 43.7325 35.5593 41.9246 35.5593 39.2528C35.5593 38.1663 35.7018 36.9461 35.9868 35.5924C36.6637 35.5924 37.3049 35.4945 37.9105 35.2985L39.9678 34.6573C41.9805 34.0339 43.9488 33.7222 45.8725 33.7222C47.7962 33.7222 49.328 34.0072 50.4679 34.5771C51.6257 35.1471 52.5252 35.9932 53.1665 37.1154C54.253 39.0212 54.7962 42.3075 54.7962 46.9743ZM39.8609 55.6309C39.8609 56.7353 40.1103 57.5902 40.609 58.1958C41.1256 58.8014 41.7668 59.1043 42.5327 59.1043C43.2986 59.1043 44.0378 58.9083 44.7503 58.5165C45.4628 58.1068 46.104 57.5546 46.674 56.8599C48.0099 55.2747 48.6778 53.4133 48.6778 51.2759V47.3216C46.1842 47.5532 44.1269 48.3814 42.506 49.8064C40.7426 51.3382 39.8609 53.2797 39.8609 55.6309Z" fill="#F6F5F5"/>
<path d="M22.9747 26.2678C23.331 25.5197 23.5982 24.7805 23.7763 24.0502C23.9722 23.3199 24.0702 22.6164 24.0702 21.9395C24.0702 21.2448 23.9366 20.7105 23.6694 20.3364H31.9253C31.5156 20.9242 31.1682 21.5744 30.8833 22.2868L29.8947 24.7182C28.2738 28.6368 25.9137 31.5847 22.8144 33.5618C23.0104 39.511 24.2839 45.1218 26.6351 50.3941C28.7547 55.2212 31.2484 58.837 34.1161 61.2416H24.8984C22.4226 58.6055 20.6681 53.814 19.635 46.8674C19.2431 44.3202 18.9136 41.3278 18.6464 37.8901C18.5752 36.9817 18.2991 36.2871 17.8182 35.8061C17.3551 35.3074 16.696 35.058 15.8411 35.058C14.9861 35.058 14.3894 35.1382 14.051 35.2985C13.7125 35.4588 13.4543 35.6993 13.2761 36.0199C12.9733 36.572 12.8219 37.8545 12.8219 39.8673C12.8219 51.4629 13.1069 58.2136 13.6769 60.1195C13.7838 60.4757 13.9174 60.8498 14.0777 61.2416H5.12716C5.69714 59.8879 6.02666 58.7569 6.11572 57.8484C6.2226 56.94 6.31166 55.9693 6.3829 54.9362C6.5254 52.8344 6.59665 50.0112 6.59665 46.4666C6.59665 42.2095 6.5254 38.3087 6.3829 34.7641L6.08901 27.4167C5.98213 24.7271 5.64371 22.8301 5.07372 21.7258C4.84217 21.2805 4.55718 20.8263 4.21875 20.3631H14.6922C13.9797 21.2894 13.5166 22.1532 13.3029 22.9548C12.9822 24.2551 12.8219 25.5553 12.8219 26.8556C12.8219 28.1381 12.8486 29.0643 12.9021 29.6343C12.9555 30.2043 13.0802 30.6763 13.2761 31.0503C13.6858 31.7628 14.4161 32.128 15.467 32.1458C16.5179 32.1458 17.3907 31.9855 18.0854 31.6648C18.7978 31.3264 19.4569 30.8811 20.0625 30.3289C20.6681 29.7768 21.2203 29.1534 21.719 28.4587C22.2177 27.7462 22.6363 27.0159 22.9747 26.2678Z" fill="#F6F5F5"/>
<path d="M200 83.5339C197.162 84.6719 194.326 85.8139 191.486 86.9439C189.386 87.7799 187.29 88.6259 185.17 89.4099C184.618 89.6139 184.338 89.8479 184.372 90.4639C184.422 91.3619 184.388 92.2639 184.422 93.1619C184.486 94.7939 183.99 96.2319 182.726 97.2599C180.3 99.2359 177.634 100.754 174.352 100.33C172.368 100.074 170.596 99.1779 169.14 97.7739C168.504 97.1599 167.944 97.1859 167.188 97.5599C165.344 98.4719 163.452 99.2879 161.582 100.15C159.042 101.322 156.524 102.54 153.966 103.668C147.934 106.328 141.87 108.92 135.842 111.592C131.58 113.48 127.37 115.488 123.104 117.37C120.882 118.35 118.608 119.224 116.318 120.032C115.514 120.316 115.404 120.712 115.362 121.472C115.202 124.388 114.934 127.298 114.7 130.306C112.778 130.306 111.018 130.302 109.26 130.306C108.064 130.31 107.758 130.552 108.016 131.726C108.34 133.21 108.644 134.78 109.37 136.082C111.774 140.384 111.384 144.612 109.306 148.808C107.046 153.374 104.648 157.872 102.312 162.402C102.192 162.636 102.1 162.886 101.996 163.13H101.596C100.03 160.622 98.456 158.118 96.902 155.604C94.68 152.012 92.798 148.27 92.148 144.036C91.7 141.128 92.038 138.382 94.066 136.05C94.372 135.7 94.626 135.304 94.908 134.932C96.13 133.32 96.172 133.166 95.926 130.928C94.968 130.882 93.986 130.85 93.006 130.784C91.312 130.67 89.62 130.522 87.926 130.412C87.338 130.374 87.156 130.102 87.132 129.528C87.032 127.164 86.866 124.804 86.77 122.442C86.746 121.85 86.518 121.578 85.99 121.344C75.334 116.62 64.794 111.616 53.996 107.244C48.386 104.974 43.176 101.766 37.268 100.194C35.888 99.8259 34.65 98.9099 33.352 98.2379C32.07 97.5739 31.798 97.5659 30.828 98.5979C29.596 99.9099 28.022 100.336 26.33 100.482C23.782 100.704 21.34 100.266 19.066 99.0919C16.336 97.6839 15.04 95.1499 15.558 92.1239C15.724 91.1499 15.45 90.6659 14.59 90.2779C10.25 88.3199 5.926 86.3279 1.598 84.3399C1.058 84.0959 0.534 83.8059 0 83.5339C0 83.3339 0 83.1339 0 82.9339C0.134 82.5319 0.302 82.1399 0.398 81.7279C1.262 78.0319 2.14 74.3359 2.952 70.6279C3.124 69.8419 3.514 69.5699 4.238 69.5799C5.57 69.5979 6.902 69.6239 8.234 69.6259C11.76 69.6299 15.288 69.6599 18.812 69.5919C19.684 69.5739 20.276 69.7979 20.536 70.5859C20.888 71.6559 21.144 72.7599 21.428 73.8519C21.554 74.3339 21.644 74.8259 21.75 75.3119C21.904 74.4739 21.896 73.6799 21.906 72.8879C21.914 72.1239 21.87 71.3499 21.968 70.5959C22.154 69.1819 22.258 69.1379 23.698 69.2799C24.062 69.3159 24.43 69.3459 24.796 69.3499C29.226 69.3999 33.658 69.4279 38.086 69.4999C39.978 69.5319 40.1 69.6219 40.644 71.4559C41 72.6539 41.21 73.8939 41.486 75.1159C41.806 74.3339 41.906 73.5339 41.982 72.7299C42.07 71.8019 42.078 70.8619 42.25 69.9519C42.306 69.6619 42.78 69.2319 43.06 69.2339C46.986 69.2639 50.914 69.3459 54.838 69.4399C56.168 69.4719 57.498 69.6319 58.828 69.6299C60.058 69.6299 60.496 70.2199 60.586 71.3719C60.666 72.3959 60.928 73.4059 61.11 74.4199C61.214 74.4159 61.318 74.4119 61.422 74.4079C61.624 73.7819 61.854 73.1639 62.024 72.5299C62.802 69.6339 62.794 69.5579 65.832 69.4939C69.862 69.4099 73.894 69.4339 77.926 69.4739C78.394 69.4779 78.93 69.7999 79.308 70.1219C80.256 70.9299 80.25 72.1279 80.396 73.2459C80.49 73.9699 80.586 74.6939 80.682 75.4179C81.23 74.1199 81.506 72.8239 81.858 71.5479C82.384 69.6539 82.578 69.4219 84.528 69.3739C89.188 69.2579 93.85 69.2519 98.51 69.1719C99.112 69.1619 99.316 69.4159 99.446 69.9439C99.686 70.9219 99.99 71.8859 100.268 72.8559L100.52 72.8379C100.646 71.9019 100.806 70.9679 100.888 70.0279C100.95 69.3259 101.298 69.0199 101.968 69.0019C107.298 68.8459 112.626 68.6819 117.92 69.5999C118.862 69.7639 119.188 70.1299 119.196 71.0739C119.208 72.3439 119.392 73.6139 119.504 74.8839C119.656 74.8839 119.808 74.8819 119.958 74.8799C120.042 73.9539 120.178 73.0279 120.198 72.0999C120.24 70.1399 121.234 69.1559 123.146 69.1279C125.844 69.0899 128.544 68.8459 131.236 68.9479C133.344 69.0259 135.446 69.4419 137.526 69.8359C137.938 69.9139 138.39 70.5159 138.562 70.9739C138.948 72.0079 139.172 73.1039 139.462 74.1759C139.55 74.1679 139.636 74.1619 139.724 74.1539C139.86 73.1539 140.05 72.1559 140.116 71.1499C140.172 70.3079 140.572 69.8639 141.358 69.7079C142.37 69.5059 143.38 69.1639 144.396 69.1439C148.024 69.0719 151.652 69.1039 155.28 69.1139C157.146 69.1199 157.564 69.4539 158.108 71.2979C158.24 71.7439 158.328 72.2039 158.414 72.6619C158.58 73.5479 158.73 74.4379 158.888 75.3259C159.142 75.0539 159.206 74.7779 159.256 74.4999C159.468 73.3199 159.632 72.1279 159.894 70.9599C160.166 69.7379 160.866 69.1439 161.922 69.1419C166.888 69.1279 171.854 69.1319 176.82 69.0999C177.51 69.0959 177.85 69.3279 177.988 70.0119C178.208 71.0999 178.502 72.1719 178.766 73.2519L179.024 73.2439C179.354 72.1359 179.72 71.0359 180 69.9139C180.156 69.2859 180.458 69.0599 181.102 69.0599C185.966 69.0499 190.83 69.0119 195.694 68.9739C196.494 68.9679 197.002 69.2559 197.19 70.0979C197.63 72.0459 198.134 73.9779 198.582 75.9239C199.072 78.0559 199.53 80.1979 200 82.3339V83.5339ZM140.17 84.1779C139.82 84.1359 139.658 84.0979 139.494 84.0979C133.766 84.0979 128.038 84.1199 122.312 84.0819C121.34 84.0759 120.856 84.4379 120.414 85.2839C114.958 95.7219 110.408 106.566 105.972 117.46C105.902 117.634 105.884 117.828 105.84 118.018C108.18 118.404 108.754 118.246 110.44 116.802C111.072 116.26 111.696 115.706 112.36 115.202C120.248 109.226 128.136 103.25 136.05 97.3079C136.802 96.7439 136.994 96.2359 136.77 95.3099C135.944 91.8899 136.486 88.6899 138.644 85.8459C139.06 85.2979 139.574 84.8239 140.17 84.1779ZM62.904 96.0879C63.544 96.5959 64.028 96.9999 64.532 97.3759C67.12 99.3099 69.72 101.228 72.3 103.172C74.028 104.474 75.726 105.814 77.442 107.132C79.496 108.708 81.482 110.386 83.632 111.82C86.028 113.42 88.726 114.546 90.828 116.624C91.706 117.494 92.836 118.114 94.26 118.22C94.152 117.878 94.098 117.624 93.996 117.392C89.214 106.548 84.426 95.7059 79.654 84.8559C79.396 84.2719 79.044 84.1119 78.434 84.1139C72.472 84.1339 66.51 84.1259 60.548 84.1299C60.298 84.1299 60.046 84.1679 59.796 84.1879C59.722 84.2859 59.646 84.3859 59.572 84.4839C59.98 84.8039 60.42 85.0879 60.788 85.4479C62.502 87.1139 63.69 89.0699 64.11 91.4639C64.408 93.1579 64.178 94.7059 62.906 96.0919L62.904 96.0879ZM83.512 84.2419C83.696 84.7639 83.802 85.0759 83.918 85.3859C87.842 95.8099 92.446 105.932 97.334 115.934C98.256 117.82 99.208 118.728 101.348 118.276C102.106 118.116 102.472 117.896 102.754 117.192C104.158 113.7 105.588 110.22 107.064 106.758C110.106 99.6219 113.186 92.4999 116.242 85.3699C116.38 85.0479 116.456 84.6979 116.602 84.2319C112.982 83.9259 109.502 83.7019 105.848 84.1659C106.076 84.4759 106.166 84.6479 106.298 84.7759C108.526 86.8899 109.18 89.5519 108.74 92.4599C108.176 96.1999 106.208 98.9919 102.51 100.19C98.896 101.362 95.53 100.74 92.846 97.9439C90.39 95.3839 89.742 92.3359 90.85 88.8899C91.468 86.9679 92.424 85.4559 94.374 84.7119C94.568 84.6379 94.736 84.4959 95.154 84.2399H83.508L83.512 84.2419ZM29.5 84.1519C29.48 84.2479 29.46 84.3419 29.44 84.4379C29.59 84.5619 29.738 84.6839 29.888 84.8079C30.068 84.9559 30.252 85.0999 30.428 85.2519C33.068 87.4979 34.078 90.3599 33.514 93.7479C33.384 94.5239 33.542 94.8579 34.258 95.1679C51.582 102.702 68.896 110.258 86.212 117.806C86.422 117.898 86.654 117.94 86.876 118.006C86.474 117.486 86.006 117.12 85.496 116.83C84.628 116.338 83.67 115.982 82.858 115.414C80.376 113.68 77.916 111.912 75.5 110.088C71.65 107.182 67.54 104.6 64.202 101.046C63.684 100.494 63.006 100.092 62.402 99.6219C61.428 98.8659 60.418 98.6919 59.382 99.4859C57.44 100.98 55.298 101.006 53.016 100.504C49.316 99.6899 46.688 97.1839 46.138 93.4799C45.918 91.9959 46.088 90.4279 46.282 88.9219C46.382 88.1379 46.29 87.6019 45.638 87.2339C44.454 86.5679 43.308 85.6679 42.028 85.3719C39.48 84.7839 36.86 84.4559 34.254 84.1799C32.686 84.0139 31.086 84.1499 29.502 84.1499L29.5 84.1519ZM170.358 84.1219C170.304 84.0279 170.248 83.9359 170.194 83.8419C166.272 83.7739 162.352 83.7499 158.548 84.9639C156.96 85.4699 155.584 86.3499 154.512 87.6239C154.204 87.9899 154.008 88.5419 153.974 89.0239C153.902 90.0499 154.034 91.0899 153.968 92.1159C153.65 96.9999 149.318 100.882 144.466 100.488C143.186 100.384 141.962 99.6839 140.694 99.3299C140.302 99.2199 139.724 99.1819 139.43 99.3919C131.744 104.898 124.084 110.442 116.424 115.986C116.19 116.156 116.012 116.404 115.81 116.614C117.548 116.124 119.124 115.428 120.716 114.772C125.426 112.836 130.182 111.008 134.846 108.966C140.822 106.348 146.746 103.61 152.652 100.836C157.262 98.6719 161.806 96.3699 166.386 94.1419C167.002 93.8419 167.224 93.5179 167.072 92.7579C166.446 89.6479 167.342 86.9679 169.59 84.7399C169.822 84.5099 170.102 84.3259 170.36 84.1199L170.358 84.1219ZM196.34 80.6199C196.254 79.9699 196.21 79.4419 196.11 78.9259C195.708 76.8659 195.256 74.8159 194.896 72.7479C194.78 72.0799 194.528 71.8859 193.866 71.8919C190.4 71.9219 186.932 71.9039 183.466 71.9059C182.182 71.9059 181.934 72.1119 181.734 73.4359C181.43 75.4459 181.16 77.4599 180.866 79.4699C180.704 80.5739 180.776 80.6719 181.908 80.6719C186.374 80.6739 190.842 80.6739 195.308 80.6719C195.602 80.6719 195.894 80.6439 196.34 80.6199ZM137.678 80.7379C137.678 80.3519 137.718 80.1159 137.672 79.8979C137.178 77.5579 136.69 75.2139 136.13 72.8899C136.076 72.6639 135.548 72.4119 135.236 72.4099C131.642 72.3759 128.048 72.4099 124.454 72.3719C123.738 72.3639 123.402 72.6099 123.32 73.2879C123.046 75.5959 122.772 77.9019 122.494 80.2079C122.416 80.8479 122.832 80.9099 123.302 80.9139C125.164 80.9299 127.028 80.9779 128.89 80.9519C131.778 80.9099 134.666 80.8159 137.678 80.7399V80.7379ZM24.03 80.7979C29.426 81.2779 34.602 81.2219 39.9 80.7859C39.452 78.2659 38.994 75.9379 38.02 73.7219C37.64 72.8539 37.112 72.5079 36.206 72.5119C32.814 72.5259 29.42 72.5119 26.028 72.5139C25.836 72.5139 25.646 72.5819 25.388 72.6299C24.94 75.3199 24.494 77.9959 24.028 80.7979H24.03ZM168.806 80.8119V80.7059C171.002 80.7059 173.196 80.7079 175.392 80.7059C176.528 80.7059 176.656 80.5859 176.48 79.4239C176.168 77.3539 175.78 75.2939 175.49 73.2199C175.39 72.5119 175.112 72.2619 174.412 72.2719C170.658 72.3299 166.902 72.3439 163.148 72.4179C162.906 72.4219 162.51 72.7779 162.458 73.0279C161.996 75.2739 161.596 77.5339 161.172 79.7879C161.026 80.5699 161.308 80.8479 162.124 80.8299C164.35 80.7819 166.578 80.8139 168.806 80.8139V80.8119ZM117.92 80.9419C117.352 78.0999 116.88 75.5919 116.314 73.1039C116.25 72.8259 115.648 72.4939 115.29 72.4879C111.662 72.4199 108.032 72.4219 104.402 72.3819C103.82 72.3759 103.58 72.5899 103.506 73.1719C103.222 75.4519 102.912 77.7279 102.578 79.9999C102.474 80.7099 102.7 80.9479 103.414 80.9439C106.676 80.9219 109.94 80.9399 113.204 80.9439C114.662 80.9439 116.118 80.9439 117.92 80.9439V80.9419ZM43.838 80.9759C44.126 81.0239 44.254 81.0639 44.38 81.0619C48.67 81.0119 52.96 80.9499 57.25 80.9079C59.656 80.8859 59.682 80.8559 59.084 78.4879C58.67 76.8479 58.226 75.2099 57.926 73.5459C57.804 72.8759 57.566 72.6239 56.94 72.6119C54.014 72.5499 51.09 72.4439 48.164 72.4359C47.382 72.4339 46.574 72.6459 45.828 72.9019C45.448 73.0319 44.954 73.4399 44.894 73.7879C44.49 76.1419 44.186 78.5139 43.838 80.9739V80.9759ZM157.02 80.6099C156.696 78.6319 156.492 76.7199 156.052 74.8619C155.526 72.6339 155.44 72.6539 153.184 72.4799C153.018 72.4679 152.852 72.4379 152.686 72.4379C149.628 72.4459 146.57 72.4439 143.514 72.4899C143.252 72.4939 142.816 72.7839 142.762 73.0119C142.306 74.9819 141.904 76.9639 141.524 78.9479C141.422 79.4759 141.448 80.0279 141.414 80.6059H157.018L157.02 80.6099ZM90.444 80.9059C90.444 80.8939 90.444 80.8819 90.444 80.8699C92.64 80.8699 94.834 80.8459 97.03 80.8819C97.856 80.8959 98.214 80.6379 98.024 79.7859C97.55 77.6459 97.074 75.5059 96.63 73.3599C96.47 72.5859 96.016 72.3719 95.284 72.3799C92.158 72.4179 89.032 72.4059 85.906 72.4499C84.306 72.4719 84.318 72.5119 84.042 74.0719C83.7 76.0019 83.326 77.9279 82.978 79.8579C82.84 80.6199 83.166 80.9299 83.956 80.9179C86.118 80.8839 88.28 80.9059 90.442 80.9059H90.444ZM78.756 80.9559C78.248 78.3059 77.848 76.0239 77.358 73.7599C77.17 72.8919 76.546 72.4879 75.588 72.4939C72.394 72.5099 69.2 72.4419 66.006 72.4719C65.662 72.4759 65.102 72.8439 65.018 73.1479C64.404 75.3539 63.878 77.5839 63.344 79.8119C63.164 80.5619 63.44 80.8919 64.272 80.8899C67.266 80.8799 70.26 80.9359 73.256 80.9579C74.976 80.9699 76.696 80.9599 78.758 80.9599L78.756 80.9559ZM20.274 80.9379C19.32 78.0659 18.48 75.4879 17.586 72.9279C17.514 72.7199 17.066 72.5259 16.792 72.5239C14.164 72.5019 11.536 72.4959 8.908 72.5379C5.616 72.5899 5.592 72.6099 5.254 75.8839C5.078 77.5899 5.008 79.3059 4.894 80.9359H20.274V80.9379ZM181.124 91.2219C181.188 89.4079 180.654 87.8459 179.32 86.6119C178.03 85.4179 176.568 84.8239 174.762 85.2739C172.728 85.7799 170.93 86.5219 170.172 88.7259C169.672 90.1819 169.566 91.6419 169.838 93.1499C170.606 97.4339 175.664 98.7439 178.3 96.8399C180.306 95.3899 180.914 93.4519 181.126 91.2219H181.124ZM60.788 92.4139C60.432 91.0739 60.114 89.7199 59.692 88.3999C59.576 88.0379 59.198 87.6799 58.848 87.4879C57.77 86.8939 56.666 86.3439 55.54 85.8459C54.258 85.2779 52.886 85.4939 52.006 86.4199C50.856 87.6279 49.822 89.0539 49.134 90.5679C48.008 93.0399 49.134 95.5539 51.598 96.7159C53.182 97.4639 54.812 97.6439 56.554 97.2819C59.282 96.7139 60.582 95.2339 60.79 92.4159L60.788 92.4139ZM24.572 85.7259C21.666 85.7359 19.802 87.1559 19.058 89.9539C18.914 90.4979 18.854 91.0639 18.734 91.6159C18.092 94.6059 20.696 96.9619 22.854 97.6359C23.068 97.7019 23.32 97.7139 23.542 97.6759C25.75 97.2859 27.77 96.4559 29.382 94.8679C29.788 94.4679 29.942 93.7979 30.168 93.2359C30.674 91.9739 30.07 90.8279 29.746 89.6579C28.96 86.8219 27.498 85.7179 24.57 85.7279L24.572 85.7259ZM93.938 91.4759C93.982 91.8459 94.012 92.4799 94.142 93.0919C94.728 95.8499 96.858 97.5019 99.672 97.4119C102.406 97.3239 105.208 95.0359 105.568 92.5939C105.908 90.3019 104.66 87.8719 102.608 86.5799C100.63 85.3359 98.784 85.8119 96.722 86.4799C94.902 87.0679 94.224 88.1339 94.052 89.8179C94.006 90.2799 93.986 90.7459 93.938 91.4759ZM150.842 92.2339C150.828 89.7379 149.65 87.5359 147.588 86.1539C145.446 84.7179 142.404 85.1939 140.852 87.2099C138.642 90.0819 139.448 94.8679 142.462 96.8779C143.258 97.4079 144.038 97.6359 144.99 97.3019C145.802 97.0159 146.668 96.8919 147.502 96.6619C149.824 96.0219 150.854 94.6459 150.84 92.2319L150.842 92.2339ZM111.62 126.622C111.62 125.044 111.594 123.652 111.63 122.26C111.65 121.542 111.336 121.33 110.674 121.36C108.348 121.464 106.022 121.55 103.694 121.628C99.91 121.752 96.126 121.842 92.344 122.012C91.97 122.028 91.454 122.44 91.29 122.798C91.006 123.42 90.934 124.142 90.798 124.826C90.41 126.768 90.414 126.88 92.426 126.9C96.648 126.94 100.87 126.866 105.092 126.81C107.178 126.782 109.264 126.692 111.616 126.622H111.62ZM101.726 143.898C103.608 143.758 105.366 143.622 107.122 143.498C107.824 143.448 108.168 143.11 108.282 142.388C108.488 141.066 108.264 139.876 107.494 138.782C105.81 136.39 101.368 134.812 98.536 135.682C98.004 135.844 97.472 136.254 97.12 136.694C96.562 137.39 96.044 138.162 95.712 138.984C95.318 139.956 95.094 141.004 94.884 142.038C94.736 142.764 95.056 143.218 95.874 143.292C97.86 143.474 99.842 143.702 101.726 143.9V143.898ZM96.78 146.25C98.01 150.484 99.428 154.412 101.686 158.204C103.322 154.1 104.868 150.22 106.452 146.25H96.78ZM10.504 84.6039C10.5 84.7139 10.496 84.8259 10.494 84.9359C12.216 85.7139 13.932 86.4999 15.664 87.2559C15.842 87.3339 16.176 87.3219 16.302 87.2059C17.33 86.2479 18.326 85.2559 19.52 84.0899C16.414 84.2659 13.46 84.4339 10.506 84.6019L10.504 84.6039ZM180.728 84.0259C181.04 84.4019 181.214 84.6299 181.406 84.8419C182.635 86.1912 184.091 86.5332 185.772 85.8679C187.022 85.3719 188.27 84.8699 189.518 84.3699C189.496 84.2559 189.476 84.1399 189.454 84.0259H180.728ZM105.612 131.856H99.82C99.816 131.958 99.812 132.06 99.806 132.16C101.726 132.376 103.646 132.592 105.612 132.812V131.856ZM46.79 84.2359C48.326 85.8159 48.994 85.7679 49.828 84.2359H46.79ZM150.44 83.7839C152.088 85.3559 152.876 85.3879 154.048 84.0339C152.88 83.9519 151.798 83.8779 150.44 83.7839Z" fill="#F6F5F5"/>
</svg>
