<svg width="950" height="479" viewBox="0 0 950 479" fill="none" xmlns="http://www.w3.org/2000/svg">
<path d="M943.145 143.342C943.145 172.197 944.881 192.592 948.355 204.526H908.946C911.439 195.887 912.998 185.69 913.621 173.934C914.957 145.524 915.625 123.482 915.625 107.807C915.625 92.1324 915.581 81.6234 915.492 76.2798C915.403 70.8471 915.313 65.4145 915.224 59.9818C914.69 40.6558 913.755 28.4991 912.419 23.5118C911.172 18.4354 909.97 14.7839 908.812 12.5574C907.743 10.2418 906.496 8.14894 905.072 6.27868L900.663 0.133545H949.423C946.93 9.1286 945.46 17.7674 945.015 26.05C944.659 34.2435 944.347 41.5019 944.08 47.8251C943.902 54.1484 943.724 60.7388 943.545 67.5964C943.367 78.9961 943.278 92.5777 943.278 108.341L943.145 143.342Z" fill="#F6F5F5"/>
<path d="M871.941 159.105C875.148 161.243 876.751 164.983 876.751 170.327C876.751 175.582 876.038 180.213 874.613 184.22C873.188 188.228 870.695 191.969 867.132 195.442C859.117 203.279 846.916 207.198 830.529 207.198C811.47 207.198 796.953 200.162 786.978 186.091C778.161 173.533 773.753 156.567 773.753 135.193C773.753 113.64 779.72 96.719 791.654 84.4287C802.965 72.7619 818.283 66.9285 837.609 66.9285C851.057 66.9285 861.566 70.8471 869.136 78.6844C875.103 84.9186 878.087 92.1324 878.087 100.326C878.087 108.43 876.484 115.778 873.277 122.368C870.16 128.87 865.529 134.48 859.384 139.201C846.738 148.997 829.059 154.163 806.349 154.697C808.219 172.598 813.83 184.577 823.181 190.633C826.565 192.77 831.063 193.839 836.674 193.839C842.285 193.839 848.252 190.9 854.575 185.022C860.898 179.144 866.687 170.505 871.941 159.105ZM805.547 142.006C833.69 140.136 847.762 126.51 847.762 101.127C847.762 91.5981 844.912 85.1857 839.212 81.8905C837.253 80.8218 834.67 80.2875 831.464 80.2875C828.258 80.2875 825.007 81.2671 821.712 83.2264C818.506 85.1858 815.7 88.3919 813.296 92.8449C808.13 102.552 805.547 117.559 805.547 137.865V142.006Z" fill="#F6F5F5"/>
<path d="M741.824 61.7185C744.229 67.0621 745.431 72.4502 745.431 77.8829C745.431 83.3155 745.164 87.8131 744.63 91.3755C744.184 94.9379 743.472 98.3667 742.492 101.662C740.266 109.143 737.104 114.887 733.007 118.895C730.246 105.091 727.218 96.1402 723.923 92.0434C720.717 87.9467 717.466 85.1858 714.171 83.7608C710.965 82.3359 707.536 81.6234 703.885 81.6234C700.233 81.6234 697.25 81.9796 694.934 82.6921C692.619 83.4046 690.615 84.4288 688.923 85.7647C685.093 88.7037 683.178 92.0434 683.178 95.7839C683.178 99.5245 684.113 102.775 685.984 105.536C687.854 108.208 690.303 110.746 693.331 113.151C696.448 115.466 699.966 117.737 703.885 119.964L715.908 126.777C726.239 132.566 733.319 137.375 737.148 141.204C744.719 148.775 748.504 156.745 748.504 165.117C748.504 176.071 744.763 185.289 737.282 192.77C727.842 202.389 713.681 207.198 694.8 207.198C677.612 207.198 664.698 203.19 656.059 195.175C653.566 192.859 651.785 190.544 650.716 188.228C651.428 181.549 654.412 175.27 659.666 169.392C664.743 163.692 669.686 160.397 674.495 159.506C674.139 160.664 673.96 162.401 673.96 164.716C673.96 167.032 674.628 169.926 675.964 173.4C677.3 176.784 679.215 179.946 681.709 182.885C687.319 189.653 693.643 193.037 700.678 193.037C707.714 193.037 712.88 191.434 716.175 188.228C719.47 185.022 721.118 181.371 721.118 177.274C721.118 173.177 720.183 169.748 718.312 166.987C716.442 164.226 713.948 161.644 710.831 159.239C707.803 156.835 704.33 154.519 700.411 152.292L688.388 145.479C678.146 139.423 671.111 134.258 667.281 129.983C659.622 121.433 655.792 112.126 655.792 102.063C655.792 91.4645 660.245 82.8702 669.151 76.2798C677.612 70.0456 688.166 66.9285 700.812 66.9285L724.324 68.5316C730.024 68.5316 733.987 67.8636 736.213 66.5277C738.44 65.1028 740.31 63.4997 741.824 61.7185Z" fill="#F6F5F5"/>
<path d="M618.521 82.1578L616.517 141.872C616.517 166.186 618.655 182.885 622.93 191.969C624.444 195.264 627.116 199.45 630.945 204.526H593.807C591.759 198.47 590.423 190.811 589.799 181.549C579.469 198.648 566.154 207.198 549.856 207.198C538.635 207.198 530.04 203.012 524.073 194.64C518.195 186.536 515.256 175.404 515.256 161.243V143.208C515.256 139.201 515.256 135.104 515.256 130.918L514.989 118.761C514.9 111.013 514.633 105.002 514.188 100.727C513.831 96.3628 513.386 92.7559 512.852 89.906C512.406 86.967 511.828 84.3843 511.115 82.1578C510.403 79.8422 509.601 77.7048 508.71 75.7455L505.771 69.6003H544.379C544.468 71.0253 544.513 72.3612 544.513 73.608V77.4821C544.513 77.4821 543.756 99.8362 542.242 144.544C542.242 157.636 543.088 166.542 544.78 171.262C546.472 175.982 548.476 179.367 550.791 181.415C553.196 183.463 556.357 184.488 560.276 184.488C570.874 184.488 579.469 178.699 586.059 167.121C587.84 163.826 589.31 160.486 590.467 157.102C590.646 152.114 590.735 146.459 590.735 140.136C590.735 107.629 588.33 86.1655 583.521 75.7455L580.582 69.6003H618.655C618.566 71.8268 618.521 73.8752 618.521 75.7455V82.1578Z" fill="#F6F5F5"/>
<path d="M402.506 204.526C406.603 190.455 408.651 166.275 408.651 131.987C408.651 107.584 406.692 90.9302 402.773 82.0242C401.17 78.3727 398.32 74.2315 394.224 69.6003H441.648C440.045 75.2111 438.754 82.9148 437.774 92.7114C446.146 82.2023 457.812 74.7658 472.774 70.4019C479.187 68.5316 483.862 65.5927 486.801 61.585C489.74 68.6207 491.21 74.6768 491.21 79.7532C491.21 84.8296 490.943 89.5498 490.408 93.9137C489.874 98.1886 489.072 102.374 488.004 106.471C485.688 115.288 482.616 122.146 478.786 127.044C475.491 109.677 470.37 99.5245 463.423 96.5855C455.408 93.1122 447.571 97.8323 439.911 110.746C438.308 113.418 436.972 116.268 435.904 119.296C435.815 121.344 435.77 123.437 435.77 125.574C435.77 127.712 435.77 129.849 435.77 131.987C435.77 166.275 437.818 190.455 441.915 204.526H402.506Z" fill="#F6F5F5"/>
<path d="M292.696 204.526C296.792 190.455 298.841 166.275 298.841 131.987C298.841 107.584 296.881 90.9302 292.963 82.0242C291.36 78.3727 288.51 74.2315 284.413 69.6003H331.837C330.234 75.2111 328.943 82.9148 327.963 92.7114C336.335 82.2023 348.002 74.7658 362.964 70.4019C369.376 68.5316 374.052 65.5927 376.991 61.585C379.93 68.6207 381.399 74.6768 381.399 79.7532C381.399 84.8296 381.132 89.5498 380.598 93.9137C380.063 98.1886 379.262 102.374 378.193 106.471C375.878 115.288 372.805 122.146 368.975 127.044C365.68 109.677 360.559 99.5245 353.613 96.5855C345.597 93.1122 337.76 97.8323 330.101 110.746C328.498 113.418 327.162 116.268 326.093 119.296C326.004 121.344 325.96 123.437 325.96 125.574C325.96 127.712 325.96 129.849 325.96 131.987C325.96 166.275 328.008 190.455 332.105 204.526H292.696Z" fill="#F6F5F5"/>
<path d="M252.886 133.189L252.485 158.838C252.485 174.78 253.954 185.645 256.893 191.434C258.675 194.908 260.767 197.579 263.172 199.45L269.451 204.526H230.71L226.568 189.03C216.505 201.142 202.166 207.198 183.553 207.198C172.954 207.198 164.405 203.635 157.903 196.511C152.203 190.098 149.354 182.528 149.354 173.8C149.354 165.072 151.402 157.458 155.499 150.956C159.684 144.455 165.162 139.067 171.93 134.792C185.289 126.51 202.077 122.19 222.294 121.834V120.364C222.294 98.7229 218.954 86.0318 212.274 82.2913C209.87 80.9554 206.753 80.2875 202.923 80.2875C199.183 80.2875 195.442 81.5343 191.701 84.028C187.961 86.5216 184.577 89.7278 181.549 93.6464C175.493 101.573 171.173 110.924 168.59 121.7C160.664 116.98 156.701 107.941 156.701 94.5816C156.701 89.1489 157.413 83.0483 158.838 76.2798C162.223 76.2798 165.429 75.7899 168.457 74.8103L178.743 71.6041C188.807 68.487 198.648 66.9285 208.267 66.9285C217.885 66.9285 225.544 68.3534 231.244 71.2034C237.033 74.0533 241.531 78.2836 244.737 83.8944C250.169 93.4238 252.886 109.855 252.886 133.189ZM178.209 176.472C178.209 181.994 179.456 186.269 181.949 189.297C184.532 192.325 187.738 193.839 191.568 193.839C195.397 193.839 199.093 192.859 202.656 190.9C206.218 188.851 209.424 186.091 212.274 182.617C218.954 174.691 222.294 165.384 222.294 154.697V134.926C209.825 136.083 199.539 140.225 191.434 147.35C182.617 155.009 178.209 164.716 178.209 176.472Z" fill="#F6F5F5"/>
<path d="M93.7801 29.657C95.5613 25.9164 96.8972 22.2204 97.7878 18.569C98.7674 14.9175 99.2573 11.3997 99.2573 8.0154C99.2573 4.54206 98.5893 1.87026 97.2534 0H138.533C136.484 2.93898 134.748 6.18966 133.323 9.75206L128.38 21.9087C120.275 41.5019 108.475 56.2413 92.9785 66.127C93.9582 95.873 100.326 123.927 112.082 150.289C122.68 174.424 135.148 192.503 149.487 204.526H103.399C91.0192 191.345 82.2468 167.388 77.0814 132.655C75.122 119.919 73.4744 104.957 72.1385 87.7685C71.7823 83.2265 70.4019 79.7532 67.9972 77.3485C65.6817 74.8549 62.3865 73.608 58.1116 73.608C53.8367 73.608 50.8532 74.0088 49.1611 74.8103C47.4689 75.6119 46.1776 76.8142 45.287 78.4173C43.7729 81.1781 43.0159 87.5904 43.0159 97.6542C43.0159 155.632 44.4409 189.386 47.2908 198.915C47.8252 200.697 48.4931 202.567 49.2947 204.526H4.54206C7.39197 197.758 9.03958 192.102 9.48488 187.56C10.0192 183.018 10.4645 178.164 10.8208 172.999C11.5333 162.49 11.8895 148.374 11.8895 130.651C11.8895 109.366 11.5333 89.8615 10.8208 72.1385L9.35129 35.4013C8.81693 21.9533 7.12479 12.4684 4.27488 6.94668C3.1171 4.72018 1.69214 2.44915 0 0.133591H52.3672C48.8048 4.76471 46.4893 9.08412 45.4206 13.0918C43.8175 19.5932 43.0159 26.0946 43.0159 32.5959C43.0159 39.0082 43.1495 43.6394 43.4167 46.4893C43.6839 49.3392 44.3073 51.6993 45.287 53.5695C47.3353 57.1319 50.9868 58.9577 56.2413 59.0467C61.4959 59.0467 65.8598 58.2452 69.3331 56.6421C72.8955 54.95 76.1908 52.7235 79.2188 49.9626C82.2468 47.2018 85.0077 44.0847 87.5014 40.6113C89.995 37.0489 92.0879 33.3975 93.7801 29.657Z" fill="#F6F5F5"/>
<path d="M728.904 279.218C721.809 282.068 714.719 284.928 707.619 287.757C702.369 289.85 697.129 291.969 691.829 293.932C690.449 294.443 689.749 295.029 689.834 296.571C689.959 298.82 689.874 301.078 689.959 303.327C690.119 307.413 688.879 311.014 685.719 313.588C679.654 318.536 672.989 322.337 664.784 321.275C659.824 320.634 655.394 318.391 651.754 314.875C650.164 313.338 648.764 313.403 646.874 314.339C642.264 316.623 637.534 318.666 632.859 320.825C626.509 323.759 620.214 326.809 613.819 329.634C598.739 336.294 583.579 342.785 568.509 349.475C557.854 354.203 547.329 359.231 536.664 363.943C531.109 366.397 525.424 368.586 519.699 370.609C517.689 371.32 517.414 372.312 517.309 374.215C516.909 381.516 516.239 388.803 515.654 396.335C510.849 396.335 506.449 396.325 502.054 396.335C499.064 396.345 498.299 396.951 498.944 399.891C499.754 403.607 500.514 407.538 502.329 410.798C508.339 421.57 507.364 432.157 502.169 442.664C496.519 454.097 490.524 465.36 484.684 476.703C484.384 477.289 484.154 477.915 483.894 478.526H482.894C478.979 472.246 475.044 465.976 471.159 459.681C465.604 450.687 460.899 441.317 459.274 430.715C458.154 423.433 458.999 416.557 464.069 410.718C464.834 409.842 465.469 408.85 466.174 407.919C469.229 403.882 469.334 403.497 468.719 397.893C466.324 397.777 463.869 397.697 461.419 397.532C457.184 397.247 452.954 396.876 448.719 396.601C447.249 396.505 446.794 395.824 446.734 394.387C446.484 388.468 446.069 382.558 445.829 376.644C445.769 375.161 445.199 374.48 443.879 373.894C417.239 362.065 390.889 349.536 363.894 338.588C349.869 332.904 336.844 324.871 322.074 320.935C318.624 320.013 315.529 317.72 312.284 316.037C309.079 314.374 308.399 314.354 305.974 316.939C302.894 320.224 298.959 321.291 294.729 321.656C288.359 322.212 282.254 321.115 276.569 318.176C269.744 314.65 266.504 308.305 267.799 300.728C268.214 298.289 267.529 297.077 265.379 296.105C254.529 291.203 243.719 286.215 232.899 281.237C231.549 280.626 230.239 279.9 228.904 279.218C228.904 278.718 228.904 278.217 228.904 277.716C229.239 276.709 229.659 275.728 229.899 274.696C232.059 265.441 234.254 256.187 236.284 246.902C236.714 244.934 237.689 244.253 239.499 244.278C242.829 244.323 246.159 244.388 249.489 244.393C258.304 244.403 267.124 244.478 275.934 244.308C278.114 244.263 279.594 244.824 280.244 246.797C281.124 249.476 281.764 252.24 282.474 254.975C282.789 256.182 283.014 257.414 283.279 258.631C283.664 256.532 283.644 254.544 283.669 252.561C283.689 250.648 283.579 248.71 283.824 246.822C284.289 243.281 284.549 243.171 288.149 243.527C289.059 243.617 289.979 243.692 290.894 243.702C301.969 243.827 313.049 243.897 324.119 244.077C328.849 244.158 329.154 244.383 330.514 248.975C331.404 251.975 331.929 255.08 332.619 258.14C333.419 256.182 333.669 254.179 333.859 252.165C334.079 249.842 334.099 247.488 334.529 245.209C334.669 244.483 335.854 243.406 336.554 243.411C346.369 243.486 356.189 243.692 365.999 243.927C369.324 244.007 372.649 244.408 375.974 244.403C379.049 244.403 380.144 245.88 380.369 248.765C380.569 251.329 381.224 253.858 381.679 256.397C381.939 256.387 382.199 256.377 382.459 256.367C382.964 254.8 383.539 253.252 383.964 251.665C385.909 244.413 385.889 244.223 393.484 244.062C403.559 243.852 413.639 243.912 423.719 244.012C424.889 244.022 426.229 244.829 427.174 245.635C429.544 247.658 429.529 250.658 429.894 253.457C430.129 255.27 430.369 257.083 430.609 258.896C431.979 255.646 432.669 252.401 433.549 249.206C434.864 244.463 435.349 243.882 440.224 243.762C451.874 243.471 463.529 243.456 475.179 243.256C476.684 243.231 477.194 243.867 477.519 245.189C478.119 247.638 478.879 250.052 479.574 252.481L480.204 252.436C480.519 250.092 480.919 247.753 481.124 245.4C481.279 243.642 482.149 242.876 483.824 242.83C497.149 242.44 510.469 242.029 523.704 244.328C526.059 244.738 526.874 245.655 526.894 248.019C526.924 251.199 527.384 254.379 527.664 257.559C528.044 257.559 528.424 257.554 528.799 257.549C529.009 255.23 529.349 252.912 529.399 250.588C529.504 245.68 531.989 243.216 536.769 243.146C543.514 243.051 550.264 242.44 556.994 242.695C562.264 242.891 567.519 243.932 572.719 244.919C573.749 245.114 574.879 246.621 575.309 247.768C576.274 250.357 576.834 253.102 577.559 255.786C577.779 255.766 577.994 255.751 578.214 255.731C578.554 253.227 579.029 250.728 579.194 248.209C579.334 246.101 580.334 244.989 582.299 244.598C584.829 244.092 587.354 243.236 589.894 243.186C598.964 243.006 608.034 243.086 617.104 243.111C621.769 243.126 622.814 243.962 624.174 248.58C624.504 249.696 624.724 250.848 624.939 251.995C625.354 254.214 625.729 256.442 626.124 258.666C626.759 257.985 626.919 257.293 627.044 256.597C627.574 253.643 627.984 250.658 628.639 247.733C629.319 244.673 631.069 243.186 633.709 243.181C646.124 243.146 658.539 243.156 670.954 243.076C672.679 243.066 673.529 243.647 673.874 245.359C674.424 248.084 675.159 250.768 675.819 253.472L676.464 253.452C677.289 250.678 678.204 247.924 678.904 245.114C679.294 243.542 680.049 242.976 681.659 242.976C693.819 242.951 705.979 242.855 718.139 242.76C720.139 242.745 721.409 243.466 721.879 245.575C722.979 250.453 724.239 255.29 725.359 260.163C726.584 265.502 727.729 270.865 728.904 276.214V279.218ZM579.329 280.831C578.454 280.726 578.049 280.631 577.639 280.631C563.319 280.631 548.999 280.686 534.684 280.591C532.254 280.576 531.044 281.482 529.939 283.6C516.299 309.737 504.924 336.89 493.834 364.169C493.659 364.605 493.614 365.09 493.504 365.566C499.354 366.533 500.789 366.137 505.004 362.521C506.584 361.164 508.144 359.777 509.804 358.515C529.524 343.551 549.244 328.587 569.029 313.708C570.909 312.296 571.389 311.024 570.829 308.705C568.764 300.142 570.119 292.129 575.514 285.008C576.554 283.635 577.839 282.449 579.329 280.831ZM386.164 310.654C387.764 311.926 388.974 312.937 390.234 313.879C396.704 318.721 403.204 323.524 409.654 328.392C413.974 331.652 418.219 335.007 422.509 338.308C427.644 342.254 432.609 346.456 437.984 350.046C443.974 354.053 450.719 356.872 455.974 362.076C458.169 364.254 460.994 365.806 464.554 366.072C464.284 365.216 464.149 364.579 463.894 363.999C451.939 336.845 439.969 309.697 428.039 282.529C427.394 281.066 426.514 280.666 424.989 280.671C410.084 280.721 395.179 280.701 380.274 280.711C379.649 280.711 379.019 280.806 378.394 280.856C378.209 281.101 378.019 281.352 377.834 281.597C378.854 282.399 379.954 283.11 380.874 284.011C385.159 288.183 388.129 293.081 389.179 299.075C389.924 303.317 389.349 307.193 386.169 310.664L386.164 310.654ZM437.684 280.991C438.144 282.298 438.409 283.08 438.699 283.856C448.509 309.957 460.019 335.303 472.239 360.348C474.544 365.07 476.924 367.344 482.274 366.212C484.169 365.811 485.084 365.261 485.789 363.498C489.299 354.754 492.874 346.04 496.564 337.371C504.169 319.503 511.869 301.669 519.509 283.816C519.854 283.009 520.044 282.133 520.409 280.966C511.359 280.2 502.659 279.639 493.524 280.801C494.094 281.577 494.319 282.008 494.649 282.328C500.219 287.622 501.854 294.287 500.754 301.569C499.344 310.934 494.424 317.925 485.179 320.925C476.144 323.86 467.729 322.302 461.019 315.301C454.879 308.891 453.259 301.259 456.029 292.63C457.574 287.817 459.964 284.031 464.839 282.168C465.324 281.983 465.744 281.627 466.789 280.986H437.674L437.684 280.991ZM302.654 280.766C302.604 281.006 302.554 281.242 302.504 281.482C302.879 281.793 303.249 282.098 303.624 282.409C304.074 282.779 304.534 283.14 304.974 283.52C311.574 289.144 314.099 296.311 312.689 304.794C312.364 306.737 312.759 307.574 314.549 308.35C357.859 327.215 401.144 346.135 444.434 365.035C444.959 365.266 445.539 365.371 446.094 365.536C445.089 364.234 443.919 363.317 442.644 362.591C440.474 361.359 438.079 360.468 436.049 359.046C429.844 354.704 423.694 350.277 417.654 345.709C408.029 338.433 397.754 331.968 389.409 323.068C388.114 321.686 386.419 320.68 384.909 319.503C382.474 317.61 379.949 317.174 377.359 319.162C372.504 322.903 367.149 322.968 361.444 321.711C352.194 319.673 345.624 313.398 344.249 304.123C343.699 300.407 344.124 296.481 344.609 292.71C344.859 290.747 344.629 289.405 342.999 288.483C340.039 286.816 337.174 284.562 333.974 283.821C327.604 282.348 321.054 281.527 314.539 280.836C310.619 280.42 306.619 280.761 302.659 280.761L302.654 280.766ZM654.799 280.691C654.664 280.455 654.524 280.225 654.389 279.99C644.584 279.819 634.784 279.759 625.274 282.799C621.304 284.066 617.864 286.27 615.184 289.46C614.414 290.376 613.924 291.758 613.839 292.965C613.659 295.534 613.989 298.139 613.824 300.708C613.029 312.937 602.199 322.658 590.069 321.671C586.869 321.411 583.809 319.658 580.639 318.771C579.659 318.496 578.214 318.401 577.479 318.927C558.264 332.714 539.114 346.596 519.964 360.478C519.379 360.904 518.934 361.525 518.429 362.05C522.774 360.824 526.714 359.081 530.694 357.438C542.469 352.59 554.359 348.013 566.019 342.9C580.959 336.344 595.769 329.489 610.534 322.542C622.059 317.124 633.419 311.36 644.869 305.781C646.409 305.03 646.964 304.218 646.584 302.315C645.019 294.528 647.259 287.817 652.879 282.238C653.459 281.662 654.159 281.202 654.804 280.686L654.799 280.691ZM719.754 271.922C719.539 270.294 719.429 268.972 719.179 267.68C718.174 262.522 717.044 257.389 716.144 252.21C715.854 250.538 715.224 250.052 713.569 250.067C704.904 250.142 696.234 250.097 687.569 250.102C684.359 250.102 683.739 250.618 683.239 253.933C682.479 258.966 681.804 264.009 681.069 269.042C680.664 271.807 680.844 272.052 683.674 272.052C694.839 272.057 706.009 272.057 717.174 272.052C717.909 272.052 718.639 271.982 719.754 271.922ZM573.099 272.217C573.099 271.251 573.199 270.66 573.084 270.114C571.849 264.255 570.629 258.385 569.229 252.566C569.094 252 567.774 251.369 566.994 251.364C558.009 251.279 549.024 251.364 540.039 251.269C538.249 251.249 537.409 251.865 537.204 253.563C536.519 259.342 535.834 265.116 535.139 270.89C534.944 272.493 535.984 272.648 537.159 272.658C541.814 272.698 546.474 272.818 551.129 272.753C558.349 272.648 565.569 272.413 573.099 272.222V272.217ZM288.979 272.368C302.469 273.569 315.409 273.429 328.654 272.337C327.534 266.027 326.389 260.198 323.954 254.649C323.004 252.476 321.684 251.609 319.419 251.619C310.939 251.655 302.454 251.619 293.974 251.624C293.494 251.624 293.019 251.795 292.374 251.915C291.254 258.651 290.139 265.351 288.974 272.368H288.979ZM650.919 272.403V272.137C656.409 272.137 661.894 272.142 667.384 272.137C670.224 272.137 670.544 271.837 670.104 268.927C669.324 263.744 668.354 258.586 667.629 253.392C667.379 251.619 666.684 250.993 664.934 251.018C655.549 251.164 646.159 251.199 636.774 251.384C636.169 251.394 635.179 252.286 635.049 252.912C633.894 258.535 632.894 264.194 631.834 269.838C631.469 271.797 632.174 272.493 634.214 272.448C639.779 272.327 645.349 272.408 650.919 272.408V272.403ZM523.704 272.728C522.284 265.612 521.104 259.332 519.689 253.102C519.529 252.406 518.024 251.574 517.129 251.559C508.059 251.389 498.984 251.394 489.909 251.294C488.454 251.279 487.854 251.815 487.669 253.272C486.959 258.981 486.184 264.68 485.349 270.369C485.089 272.147 485.654 272.743 487.439 272.733C495.594 272.678 503.754 272.723 511.914 272.733C515.559 272.733 519.199 272.733 523.704 272.733V272.728ZM338.499 272.813C339.219 272.933 339.539 273.034 339.854 273.029C350.579 272.903 361.304 272.748 372.029 272.643C378.044 272.588 378.109 272.513 376.614 266.583C375.579 262.477 374.469 258.375 373.719 254.209C373.414 252.531 372.819 251.9 371.254 251.87C363.939 251.715 356.629 251.449 349.314 251.429C347.359 251.424 345.339 251.955 343.474 252.596C342.524 252.922 341.289 253.943 341.139 254.815C340.129 260.709 339.369 266.648 338.499 272.808V272.813ZM621.454 271.897C620.644 266.944 620.134 262.156 619.034 257.504C617.719 251.925 617.504 251.975 611.864 251.539C611.449 251.509 611.034 251.434 610.619 251.434C602.974 251.454 595.329 251.449 587.689 251.564C587.034 251.574 585.944 252.301 585.809 252.871C584.669 257.804 583.664 262.767 582.714 267.735C582.459 269.057 582.524 270.439 582.439 271.887H621.449L621.454 271.897ZM455.014 272.638C455.014 272.608 455.014 272.578 455.014 272.548C460.504 272.548 465.989 272.488 471.479 272.578C473.544 272.613 474.439 271.967 473.964 269.833C472.779 264.475 471.589 259.116 470.479 253.743C470.079 251.805 468.944 251.269 467.114 251.289C459.299 251.384 451.484 251.354 443.669 251.464C439.669 251.519 439.699 251.619 439.009 255.526C438.154 260.358 437.219 265.181 436.349 270.014C436.004 271.922 436.819 272.698 438.794 272.668C444.199 272.583 449.604 272.638 455.009 272.638H455.014ZM425.794 272.763C424.524 266.128 423.524 260.413 422.299 254.744C421.829 252.571 420.269 251.559 417.874 251.574C409.889 251.614 401.904 251.444 393.919 251.519C393.059 251.529 391.659 252.451 391.449 253.212C389.914 258.736 388.599 264.32 387.264 269.899C386.814 271.777 387.504 272.603 389.584 272.598C397.069 272.573 404.554 272.713 412.044 272.768C416.344 272.798 420.644 272.773 425.799 272.773L425.794 272.763ZM279.589 272.718C277.204 265.527 275.104 259.071 272.869 252.661C272.689 252.14 271.569 251.655 270.884 251.65C264.314 251.594 257.744 251.579 251.174 251.685C242.944 251.815 242.884 251.865 242.039 260.063C241.599 264.335 241.424 268.632 241.139 272.713H279.589V272.718ZM681.714 298.469C681.874 293.927 680.539 290.016 677.204 286.926C673.979 283.936 670.324 282.449 665.809 283.575C660.724 284.842 656.229 286.7 654.334 292.219C653.084 295.865 652.819 299.521 653.499 303.297C655.419 314.024 668.064 317.304 674.654 312.537C679.669 308.906 681.189 304.053 681.719 298.469H681.714ZM380.874 301.454C379.984 298.099 379.189 294.708 378.134 291.403C377.844 290.496 376.899 289.6 376.024 289.119C373.329 287.632 370.569 286.255 367.754 285.008C364.549 283.585 361.119 284.126 358.919 286.445C356.044 289.47 353.459 293.04 351.739 296.832C348.924 303.021 351.739 309.316 357.899 312.226C361.859 314.099 365.934 314.55 370.289 313.643C377.109 312.221 380.359 308.515 380.879 301.459L380.874 301.454ZM290.334 284.707C283.069 284.732 278.409 288.288 276.549 295.294C276.189 296.656 276.039 298.074 275.739 299.456C274.134 306.943 280.644 312.842 286.039 314.53C286.574 314.695 287.204 314.725 287.759 314.63C293.279 313.653 298.329 311.575 302.359 307.599C303.374 306.597 303.759 304.919 304.324 303.512C305.589 300.352 304.079 297.483 303.269 294.553C301.304 287.452 297.649 284.687 290.329 284.712L290.334 284.707ZM463.749 299.105C463.859 300.032 463.934 301.619 464.259 303.152C465.724 310.058 471.049 314.194 478.084 313.969C484.919 313.748 491.924 308.019 492.824 301.905C493.674 296.165 490.554 290.081 485.424 286.846C480.479 283.731 475.864 284.923 470.709 286.595C466.159 288.068 464.464 290.737 464.034 294.954C463.919 296.11 463.869 297.277 463.749 299.105ZM606.009 301.003C605.974 294.753 603.029 289.239 597.874 285.779C592.519 282.183 584.914 283.375 581.034 288.423C575.509 295.615 577.524 307.599 585.059 312.632C587.049 313.959 588.999 314.53 591.379 313.693C593.409 312.977 595.574 312.667 597.659 312.091C603.464 310.488 606.039 307.043 606.004 300.998L606.009 301.003ZM507.954 387.11C507.954 383.159 507.889 379.674 507.979 376.188C508.029 374.39 507.244 373.859 505.589 373.934C499.774 374.195 493.959 374.41 488.139 374.605C478.679 374.916 469.219 375.141 459.764 375.567C458.829 375.607 457.539 376.639 457.129 377.535C456.419 379.093 456.239 380.901 455.899 382.613C454.929 387.476 454.939 387.756 459.969 387.807C470.524 387.907 481.079 387.721 491.634 387.581C496.849 387.511 502.064 387.286 507.944 387.11H507.954ZM483.219 430.369C487.924 430.019 492.319 429.678 496.709 429.368C498.464 429.243 499.324 428.396 499.609 426.588C500.124 423.278 499.564 420.298 497.639 417.559C493.429 411.569 482.324 407.618 475.244 409.797C473.914 410.202 472.584 411.229 471.704 412.331C470.309 414.073 469.014 416.006 468.184 418.065C467.199 420.499 466.639 423.123 466.114 425.712C465.744 427.53 466.544 428.667 468.589 428.852C473.554 429.308 478.509 429.879 483.219 430.374V430.369ZM470.854 436.259C473.929 446.861 477.474 456.696 483.119 466.191C487.209 455.915 491.074 446.2 495.034 436.259H470.854ZM255.164 281.898C255.154 282.173 255.144 282.454 255.139 282.729C259.444 284.677 263.734 286.645 268.064 288.538C268.509 288.734 269.344 288.704 269.659 288.413C272.229 286.014 274.719 283.53 277.704 280.611C269.939 281.051 262.554 281.472 255.169 281.893L255.164 281.898ZM680.724 280.45C681.504 281.392 681.939 281.963 682.419 282.494C685.493 285.872 689.131 286.729 693.334 285.063C696.459 283.821 699.579 282.564 702.699 281.312C702.644 281.026 702.594 280.736 702.539 280.45H680.724ZM492.934 400.216H478.454C478.444 400.472 478.434 400.727 478.419 400.978C483.219 401.518 488.019 402.059 492.934 402.61V400.216ZM345.879 280.976C349.719 284.933 351.389 284.812 353.474 280.976H345.879ZM605.004 279.844C609.124 283.781 611.094 283.861 614.024 280.47C611.104 280.265 608.399 280.08 605.004 279.844Z" fill="#F6F5F5"/>
</svg>
