<svg width="522" height="90" viewBox="0 0 522 90" fill="none" xmlns="http://www.w3.org/2000/svg">
<rect width="522" height="90" rx="6" fill="#302D29"/>
<rect x="243" y="8" width="36" height="36" rx="18" fill="#5B554D"/>
<path d="M256 18V34L269 26L256 18Z" stroke="#F6F5F5" stroke-width="2" stroke-linecap="round" stroke-linejoin="round"/>
<path d="M31 22C31.621 22.4657 32.125 23.0697 32.4721 23.7639C32.8193 24.4582 33 25.2238 33 26C33 26.7762 32.8193 27.5418 32.4721 28.2361C32.125 28.9303 31.621 29.5343 31 30M33.7 19C34.744 19.8437 35.586 20.9101 36.1645 22.1213C36.7429 23.3325 37.0431 24.6578 37.0431 26C37.0431 27.3422 36.7429 28.6675 36.1645 29.8787C35.586 31.0899 34.744 32.1564 33.7 33M22 29H20C19.7348 29 19.4804 28.8946 19.2929 28.7071C19.1054 28.5196 19 28.2652 19 28V24C19 23.7348 19.1054 23.4804 19.2929 23.2929C19.4804 23.1054 19.7348 23 20 23H22L25.5 18.5C25.5874 18.3302 25.7326 18.1973 25.9095 18.1253C26.0863 18.0533 26.2831 18.0469 26.4643 18.1072C26.6454 18.1676 26.799 18.2908 26.8972 18.4545C26.9955 18.6183 27.0319 18.8117 27 19V33C27.0319 33.1883 26.9955 33.3817 26.8972 33.5455C26.799 33.7092 26.6454 33.8324 26.4643 33.8928C26.2831 33.9531 26.0863 33.9467 25.9095 33.8747C25.7326 33.8027 25.5874 33.6698 25.5 33.5L22 29Z" stroke="#F6F5F5" stroke-width="2" stroke-linecap="round" stroke-linejoin="round"/>
<rect x="16" y="67" width="491" height="6" rx="3" fill="#5B554D"/>
<rect x="16" y="67" width="395.384" height="6" rx="3" fill="#F6F5F5"/>
<rect x="392.5" y="61.5" width="17" height="17" rx="8.5" fill="#5B554D"/>
<rect x="392.5" y="61.5" width="17" height="17" rx="8.5" stroke="#F6F5F5" stroke-width="3"/>
<rect x="50" y="23" width="64" height="6" rx="3" fill="#5B554D"/>
<rect x="50" y="23" width="51.5368" height="6" rx="3" fill="#F6F5F5"/>
</svg>
